<svg width="51" height="51" viewBox="0 0 51 51" fill="none" xmlns="http://www.w3.org/2000/svg">
<rect x="0.920691" y="49.097" width="48.1796" height="48.1796" transform="rotate(-89.336 0.920691 49.097)" stroke="black" stroke-width="1.82041"/>
<path d="M25.4811 8.62241L24.2089 7.32035L25.5109 6.04814L26.7831 7.35019L25.4811 8.62241ZM26.9392 39.8914C26.9276 40.8967 26.1031 41.7022 25.0978 41.6906C24.0925 41.6789 23.287 40.8545 23.2986 39.8492L26.9392 39.8914ZM11.5648 19.6746L24.2089 7.32035L26.7533 9.92446L14.1093 22.2788L11.5648 19.6746ZM26.7831 7.35019L39.1374 19.9942L36.5333 22.5387L24.179 9.89462L26.7831 7.35019ZM27.3014 8.6435L26.9392 39.8914L23.2986 39.8492L23.6608 8.60131L27.3014 8.6435Z" fill="#33363F"/>
</svg>
