<svg width="28" height="28" viewBox="0 0 28 28" fill="none" xmlns="http://www.w3.org/2000/svg">
<path d="M2.71874 7.96743C2.21438 5.36332 4.56274 3.02025 8.15015 2.1605C8.78711 2.00795 9.47445 2.0513 10.072 2.2817C10.6695 2.51211 11.1321 2.91222 11.3656 3.4004L12.5159 5.80356C12.7009 6.19012 12.734 6.61111 12.6112 7.01252C12.4883 7.41394 12.215 7.77748 11.8262 8.05652L8.40431 10.5125C8.23523 10.6336 8.10925 10.7871 8.03871 10.9577C7.96816 11.1284 7.95548 11.3105 8.00189 11.4862L8.03233 11.5939L8.11706 11.8643C8.19251 12.0922 8.30635 12.4133 8.46653 12.7965C8.78423 13.5579 9.29124 14.5813 10.0458 15.6037C10.8003 16.626 11.6793 17.4816 12.3624 18.0773C12.7184 18.3872 13.0903 18.6857 13.477 18.9722L13.5829 19.0489C13.754 19.1675 13.9616 19.2494 14.1852 19.2866C14.4088 19.3238 14.641 19.3151 14.859 19.2612L19.2883 18.1705C19.7916 18.0467 20.3306 18.0434 20.8363 18.1609C21.342 18.2785 21.7912 18.5116 22.1265 18.8303L24.222 20.8212C25.0957 21.6499 24.9924 22.868 23.9877 23.6004C21.2422 25.6027 17.4668 26.0139 14.8405 24.3607C11.622 22.3284 8.90824 19.8506 6.83433 17.0507C4.74518 14.2519 3.34894 11.171 2.71874 7.96743ZM10.7752 11.6219L13.616 9.58335C14.3934 9.02527 14.94 8.29819 15.1858 7.49536C15.4316 6.69254 15.3652 5.85056 14.9953 5.07743L13.8437 2.67428C13.3738 1.69243 12.4431 0.887754 11.2413 0.424282C10.0395 -0.0391896 8.65704 -0.126565 7.37575 0.179966C2.92127 1.24792 -0.655544 4.37306 0.10165 8.27715C0.781357 11.7388 2.28898 15.0692 4.54553 18.0938C6.78243 21.1131 9.70934 23.7851 13.1805 25.9766C17.1187 28.4523 22.3793 27.608 25.7933 25.1168C26.7707 24.4047 27.3639 23.4274 27.4517 22.3846C27.5396 21.3418 27.1154 20.3121 26.2659 19.5057L24.1704 17.5148C23.4998 16.8771 22.601 16.4108 21.5894 16.1757C20.5778 15.9406 19.4994 15.9473 18.4927 16.1951L14.8166 17.1005C14.652 16.9681 14.491 16.833 14.3335 16.6954C13.5777 16.0416 12.9093 15.329 12.3385 14.5689C11.7823 13.8019 11.3277 12.9925 10.9817 12.1533C10.9082 11.9776 10.8394 11.8008 10.7752 11.6229" fill="#EF980C"/>
</svg>

