<svg width="171" height="120" viewBox="0 0 171 120" fill="none" xmlns="http://www.w3.org/2000/svg">
<g opacity="0.9">
<path d="M47.8426 7.75804e-06C47.2777 -0.000168085 46.714 0.00264529 46.1516 0.0084481C38.6543 0.0849397 31.3733 0.714545 24.8322 2.09271C14.3664 4.29778 5.54704 8.60848 1.9266 15.7383C-1.30414 22.1011 1.51317 27.9173 7.16826 32.385C12.8233 36.8526 21.0967 40.4596 29.8631 44.0626C38.6299 47.6656 47.9105 51.2296 55.4629 55.1961C63.0157 59.1623 68.6964 63.4785 70.8826 68.4088C71.2931 69.3336 70.9834 72.2213 70.181 74.5914C69.861 75.5357 69.5207 76.3634 69.2131 77.0729L75.6213 78.1897C75.9281 77.4649 76.2594 76.6272 76.5665 75.7195C77.4752 73.0357 78.4485 69.9035 77.1436 66.9607C74.3047 60.5587 67.4294 55.6102 59.3292 51.3564C51.2289 47.1025 41.7606 43.49 33.1154 39.9368C24.4702 36.3836 16.6688 32.8542 12.0202 29.1815C7.37169 25.5092 5.65697 22.182 8.09921 17.3728C10.8376 11.9794 17.4175 8.60083 26.6733 6.65029C35.9291 4.70002 47.6125 4.36609 59.1502 5.15185C70.6875 5.93786 82.0989 7.82879 90.8514 10.1333C94.6292 11.1279 97.9093 12.2033 100.458 13.261C101.632 12.6288 102.873 11.9957 104.177 11.4305C104.971 11.0863 105.799 10.764 106.664 10.4857C106.157 10.2297 105.642 9.98243 105.119 9.74398C101.872 8.26848 97.7961 6.90852 93.1037 5.67305C83.7186 3.2021 71.8778 1.24972 59.7678 0.424668C55.7942 0.154046 51.7943 0.0026454 47.8426 7.75804e-06ZM112.086 14.3192C111.954 14.3224 111.819 14.3291 111.679 14.3393C110.561 14.4184 109.128 14.8214 107.561 15.5009C105.326 16.4702 102.98 17.9341 100.535 19.2498L123.343 41.4239L130.738 40.1721C129.181 32.17 125.544 21.0112 114.836 15.0451C113.78 14.4567 113.012 14.2968 112.086 14.3192ZM131.37 44.9414L124.97 46.025L143.328 102.592H150.08L131.37 44.9414ZM13.0315 76.5108L12.3139 81.3847C14.4453 81.438 16.6417 81.5113 18.8919 81.6047L19.5683 77.0131L13.0315 76.5108ZM58.0206 80.0062L56.1981 84.8482L78.2147 88.7047L80.2242 83.8762L58.0206 80.0062ZM4.38783 86.0248C4.04671 86.0248 3.98426 85.9984 3.45359 86.527C2.92293 87.0556 2.28598 88.1339 1.84297 89.5614C0.956211 92.4163 0.741461 96.5891 1.09426 100.758C1.44743 104.926 2.3477 109.133 3.45652 112.155C4.01056 113.665 4.63983 114.888 5.13215 115.555C5.24135 115.702 5.25194 115.694 5.33302 115.78H8.72775C7.55081 113.87 6.94319 111.803 6.94438 109.713C6.94438 101.438 16.3039 94.6786 27.762 94.6786C39.2201 94.6786 48.5796 101.438 48.5796 109.713C48.5809 111.803 47.9734 113.87 46.7966 115.78H79.8546C80.0219 115.62 80.3352 115.256 80.6395 114.646C81.2969 113.326 81.8494 111.201 82.2 108.923C82.9013 104.367 82.9104 99.1626 82.9104 97.0525C82.9104 96.8877 82.795 96.5205 81.7179 95.8408C80.6409 95.1611 78.7377 94.3492 76.2389 93.583C71.2405 92.05 63.9054 90.6481 55.6382 89.5186C39.1043 87.2598 18.7392 86.0248 4.38783 86.0248ZM27.762 99.4264C19.8568 99.4264 13.5184 104.004 13.5184 109.713C13.5184 115.422 19.8568 120 27.762 120C35.6676 120 42.0056 115.422 42.0056 109.713C42.0056 104.004 35.6676 99.4264 27.762 99.4264ZM140.821 107.339L138.264 111.032H156.845L154.288 107.339H140.821ZM124.546 115.78V119.472H170.563V115.78H124.546Z" fill="#111111"/>
</g>
</svg>
