<svg width="151" height="114" viewBox="0 0 151 114" fill="none" xmlns="http://www.w3.org/2000/svg">
<g opacity="0.9">
<path fill-rule="evenodd" clip-rule="evenodd" d="M64.9195 60.7665L7.99396 4.30572C7.66692 3.98138 7.46424 3.62626 7.39747 3.26061C7.3307 2.89497 7.40117 2.52598 7.60483 2.17469C8.01616 1.46525 8.94509 0.871019 10.1873 0.522736C11.4295 0.174452 12.8832 0.100641 14.2286 0.317541C14.8947 0.424938 15.5143 0.600474 16.0518 0.834126C16.5893 1.06778 17.0343 1.35497 17.3613 1.67931L74.2922 58.1401L82.3653 55.8745C84.8259 55.1847 87.52 54.7573 90.2939 54.6166C93.0678 54.4759 95.867 54.6248 98.5318 55.0547C101.197 55.4845 103.675 56.187 105.825 57.1219C107.974 58.0569 109.754 59.206 111.062 60.5036L114.499 63.9132L150.939 92.0345L104.59 105.027L88.5342 88.2921L79.0714 90.8178L95.2229 107.656L75.3531 113.225L51.5103 81.568L48.0784 78.1612C46.7701 76.8639 45.9592 75.4434 45.6921 73.9808C45.4249 72.5182 45.7067 71.0422 46.5214 69.6371C47.3361 68.2319 48.6677 66.9252 50.4402 65.7914C52.2127 64.6576 54.3913 63.7191 56.8517 63.0293L64.9195 60.7665ZM87.3407 60.8169L61.8271 67.9689C60.5969 68.3138 59.5076 68.783 58.6214 69.3499C57.7351 69.9168 57.0693 70.5702 56.662 71.2728C56.2546 71.9753 56.1137 72.7133 56.2473 73.4446C56.3809 74.1759 56.7863 74.8862 57.4405 75.5348L60.8724 78.9416L105.126 66.534L101.689 63.13C101.035 62.4813 100.145 61.9069 99.0698 61.4396C97.9948 60.9722 96.7557 60.6212 95.4234 60.4064C94.091 60.1916 92.6914 60.1173 91.3046 60.1877C89.9178 60.2581 88.5709 60.4719 87.3407 60.8169Z" fill="#111111"/>
<path d="M42.1431 88.0602C41.2433 87.4902 39.9511 87.1321 38.5506 87.0644C37.1501 86.9967 35.7559 87.2251 34.6747 87.6994H34.6853L34.627 87.7217L34.2981 87.856C33.8216 88.044 33.3352 88.225 32.8394 88.3986C31.5239 88.8601 29.5614 89.4895 27.0365 90.1216C20.5467 91.7664 13.4442 92.6292 6.24374 92.6473C4.83695 92.6473 3.48779 92.942 2.49304 93.4665C1.4983 93.9911 0.939453 94.7025 0.939453 95.4443C0.939453 96.1862 1.4983 96.8976 2.49304 97.4221C3.48779 97.9467 4.83695 98.2414 6.24374 98.2414C15.0223 98.2235 23.6833 97.1754 31.5982 95.173C34.0657 94.5552 36.4479 93.8467 38.7272 93.0529C39.5797 92.7519 40.4113 92.4347 41.2202 92.1019L41.3793 92.0376L41.4324 92.0152L41.4483 92.004H41.4589L41.4642 91.9984C42.5442 91.5235 43.2225 90.8419 43.3498 90.1034C43.4771 89.3649 43.0431 88.63 42.1431 88.0602ZM53.0912 102.283C53.4779 102.589 53.7466 102.931 53.882 103.292C54.0174 103.652 54.0169 104.023 53.8805 104.383C53.744 104.744 53.4744 105.086 53.0868 105.391C52.6993 105.697 52.2015 105.959 51.6219 106.163L51.6113 106.168L51.5901 106.174L51.537 106.191L51.3726 106.246L50.7679 106.451C47.5932 107.477 44.2939 108.391 40.8913 109.189C34.6216 110.657 25.8749 112.227 16.8523 112.227C15.4455 112.227 14.0964 111.932 13.1016 111.407C12.1069 110.883 11.548 110.171 11.548 109.429C11.548 108.688 12.1069 107.976 13.1016 107.452C14.0964 106.927 15.4455 106.632 16.8523 106.632C23.7373 106.632 30.9087 105.405 36.5789 104.076C39.5349 103.383 42.4017 102.589 45.1613 101.698C45.3699 101.633 45.522 101.583 45.6174 101.547L45.7235 101.514L45.7341 101.508C46.3136 101.304 46.9637 101.163 47.647 101.091C48.3304 101.02 49.0338 101.02 49.717 101.092C50.4002 101.164 51.0498 101.306 51.6287 101.511C52.2077 101.715 52.7046 101.977 53.0912 102.283Z" fill="#111111"/>
</g>
</svg>
