<svg width="186" height="181" viewBox="0 0 186 181" fill="none" xmlns="http://www.w3.org/2000/svg">
<g filter="url(#filter0_b_47_61)">
<rect y="0.22998" width="186" height="180.23" rx="90.115" fill="#499A5A"/>
<rect x="0.848838" y="1.07882" width="184.302" height="178.532" rx="89.2662" stroke="#499A5A" stroke-width="1.69768"/>
<path d="M147.349 151.661V151.808H147.496H156.56C157.304 151.808 158.032 152.217 158.577 152.971C159.123 153.726 159.434 154.758 159.434 155.84C159.434 156.921 159.123 157.953 158.577 158.708C158.032 159.462 157.304 159.871 156.56 159.871H43.7654C43.0215 159.871 42.2939 159.462 41.7485 158.708C41.2027 157.953 40.8916 156.921 40.8916 155.84C40.8916 154.758 41.2027 153.726 41.7485 152.971C42.2939 152.217 43.0215 151.808 43.7654 151.808H52.8293H52.9767V151.661V37.4476V37.3002H52.8293H51.8222C51.0783 37.3002 50.3507 36.8916 49.8053 36.1374C49.2595 35.3825 48.9483 34.351 48.9483 33.2691C48.9483 32.1872 49.2595 31.1558 49.8053 30.4008C50.3507 29.6466 51.0783 29.238 51.8222 29.238H124.333C125.077 29.238 125.805 29.6466 126.35 30.4008C126.896 31.1558 127.207 32.1872 127.207 33.2691C127.207 34.351 126.896 35.3825 126.35 36.1374C125.805 36.8916 125.077 37.3002 124.333 37.3002H123.326H123.179V37.4476V62.5189V62.6663H123.326H148.503C149.247 62.6663 149.975 63.0749 150.52 63.8291C151.066 64.5841 151.377 65.6155 151.377 66.6974C151.377 67.7793 151.066 68.8108 150.52 69.5657C149.975 70.3199 149.247 70.7285 148.503 70.7285H147.496H147.349V70.8759V151.661ZM141.601 70.8759V70.7285H141.454H123.326H123.179V70.8759V151.661V151.808H123.326H141.454H141.601V151.661V70.8759ZM58.8719 37.3002H58.7244V37.4476V151.661V151.808H58.8719H72.9712H73.1187V151.661V116.84C73.1187 115.758 73.4298 114.726 73.9756 113.972C74.521 113.217 75.2486 112.809 75.9925 112.809H100.163C100.907 112.809 101.634 113.217 102.18 113.972C102.726 114.726 103.037 115.758 103.037 116.84V151.661V151.808H103.184H117.283H117.431V151.661V37.4476V37.3002H117.283H58.8719ZM97.1415 151.808H97.289V151.661V121.018V120.871H97.1415H79.0138H78.8663V121.018V151.661V151.808H79.0138H97.1415ZM69.0903 61.126C69.0903 60.0441 69.4014 59.0127 69.9472 58.2577C70.4926 57.5035 71.2202 57.0949 71.9641 57.0949H80.0209C80.7648 57.0949 81.4924 57.5035 82.0378 58.2577C82.5836 59.0127 82.8947 60.0441 82.8947 61.126C82.8947 62.2079 82.5836 63.2394 82.0378 63.9943C81.4924 64.7485 80.7648 65.1571 80.0209 65.1571H71.9641C71.2202 65.1571 70.4926 64.7485 69.9472 63.9943C69.4014 63.2394 69.0903 62.2079 69.0903 61.126ZM93.2606 61.126C93.2606 60.0441 93.5717 59.0127 94.1175 58.2577C94.6629 57.5035 95.3905 57.0949 96.1344 57.0949H104.191C104.935 57.0949 105.663 57.5035 106.208 58.2577C106.754 59.0127 107.065 60.0441 107.065 61.126C107.065 62.2079 106.754 63.2394 106.208 63.9943C105.663 64.7485 104.935 65.1571 104.191 65.1571H96.1344C95.3905 65.1571 94.6629 64.7485 94.1175 63.9943C93.5717 63.2394 93.2606 62.2079 93.2606 61.126ZM71.9641 93.014C71.2202 93.014 70.4926 92.6055 69.9472 91.8512C69.4014 91.0963 69.0903 90.0648 69.0903 88.9829C69.0903 87.901 69.4014 86.8696 69.9472 86.1147C70.4926 85.3604 71.2202 84.9518 71.9641 84.9518H80.0209C80.7648 84.9518 81.4924 85.3604 82.0378 86.1147C82.5836 86.8696 82.8947 87.901 82.8947 88.9829C82.8947 90.0648 82.5836 91.0963 82.0378 91.8512C81.4924 92.6055 80.7648 93.014 80.0209 93.014H71.9641ZM93.2606 88.9829C93.2606 87.901 93.5717 86.8696 94.1175 86.1147C94.6629 85.3604 95.3905 84.9518 96.1344 84.9518H104.191C104.935 84.9518 105.663 85.3604 106.208 86.1147C106.754 86.8696 107.065 87.901 107.065 88.9829C107.065 90.0648 106.754 91.0963 106.208 91.8512C105.663 92.6055 104.935 93.014 104.191 93.014H96.1344C95.3905 93.014 94.6629 92.6055 94.1175 91.8512C93.5717 91.0963 93.2606 90.0648 93.2606 88.9829Z" fill="white" stroke="white" stroke-width="0.294882"/>
</g>
<defs>
<filter id="filter0_b_47_61" x="-5.09303" y="-4.86305" width="196.186" height="190.416" filterUnits="userSpaceOnUse" color-interpolation-filters="sRGB">
<feFlood flood-opacity="0" result="BackgroundImageFix"/>
<feGaussianBlur in="BackgroundImageFix" stdDeviation="2.54651"/>
<feComposite in2="SourceAlpha" operator="in" result="effect1_backgroundBlur_47_61"/>
<feBlend mode="normal" in="SourceGraphic" in2="effect1_backgroundBlur_47_61" result="shape"/>
</filter>
</defs>
</svg>
