<svg width="98" height="98" viewBox="0 0 98 98" fill="none" xmlns="http://www.w3.org/2000/svg">
<g clip-path="url(#clip0_1759_1311)">
<path d="M32.827 18.375C31.5363 18.3803 30.2797 18.7891 29.233 19.5442C28.1863 20.2993 27.4019 21.3629 26.9898 22.5859L22.295 36.75H3.7348e-05V61.9207C-0.00560937 63.2802 0.443473 64.6025 1.27586 65.6774C2.10825 66.7523 3.27614 67.518 4.59379 67.8527L12.5379 69.8648C13.1093 72.6172 14.6098 75.0894 16.7879 76.8665C18.966 78.6436 21.689 79.6176 24.5 79.625C30.1718 79.625 34.9064 75.7019 36.2723 70.4375H64.7903C66.1562 75.7019 70.8908 79.625 76.5625 79.625C82.2343 79.625 86.9689 75.7019 88.3348 70.4375H91.875C95.2254 70.4375 98 67.6629 98 64.3125V52.8281C97.9942 50.1661 97.1229 47.5782 95.5176 45.4547C93.9123 43.3312 91.66 41.7873 89.1004 41.0559L75.2212 37.1328L63.259 22.7758C62.1144 21.3994 60.681 20.2917 59.0604 19.5311C57.4399 18.7706 55.6718 18.3759 53.8817 18.375H32.827ZM32.827 24.5H42.875V36.75H28.711L32.827 24.5ZM49 24.5H53.8817C55.6977 24.5 57.4097 25.3024 58.5704 26.7019L66.9922 36.75H49V24.5ZM6.12504 42.875H73.0223L87.4712 46.991C88.7459 47.3426 89.8687 48.1055 90.6651 49.1611C91.4615 50.2167 91.8869 51.5059 91.875 52.8281V64.3125H88.3348C86.9689 59.0481 82.2343 55.125 76.5625 55.125C70.8908 55.125 66.1562 59.0481 64.7903 64.3125H36.2723C34.9064 59.0481 30.1718 55.125 24.5 55.125C19.0702 55.125 14.5102 58.7142 12.9207 63.6418L6.12504 61.9237V42.875ZM24.5 61.25C27.9208 61.25 30.625 63.9542 30.625 67.375C30.625 70.7958 27.9208 73.5 24.5 73.5C21.0792 73.5 18.375 70.7958 18.375 67.375C18.375 63.9542 21.0792 61.25 24.5 61.25ZM76.5625 61.25C79.9834 61.25 82.6875 63.9542 82.6875 67.375C82.6875 70.7958 79.9834 73.5 76.5625 73.5C73.1417 73.5 70.4375 70.7958 70.4375 67.375C70.4375 63.9542 73.1417 61.25 76.5625 61.25Z" fill="#111111" fill-opacity="0.9"/>
</g>
<defs>
<clipPath id="clip0_1759_1311">
<rect width="98" height="98" fill="white"/>
</clipPath>
</defs>
</svg>
