<svg width="186" height="181" viewBox="0 0 186 181" fill="none" xmlns="http://www.w3.org/2000/svg">
<g clip-path="url(#clip0_47_69)">
<rect y="0.310059" width="186" height="180.31" rx="90.155" fill="#499A5A"/>
<path d="M187 89.4651H166.334M166.334 89.4651C166.334 108.064 158.718 125.896 145.152 139.047C131.585 152.198 113.186 159.587 94 159.587M166.334 89.4651C166.334 70.8664 158.718 53.0247 145.152 39.8735C131.585 26.7222 113.186 19.3434 94 19.3434M94 -0.689941V19.3434M94 19.3434C74.8157 19.3434 56.4172 26.7217 42.8518 39.8721C29.2865 53.0225 21.6656 70.8582 21.6656 89.4556C21.6656 108.053 29.2865 125.889 42.8518 139.039C56.4172 152.189 74.8157 159.587 94 159.587M1 89.4651H21.6656M94 179.62V159.587" stroke="white" stroke-width="13.5625" stroke-miterlimit="10" stroke-linecap="round"/>
<path d="M94.0001 129.532C104.962 129.532 115.475 125.311 123.226 117.797C130.977 110.283 135.331 100.092 135.331 89.4652C135.331 78.8388 130.977 68.6477 123.226 61.1337C115.475 53.6197 104.962 49.3984 94.0001 49.3984C83.0384 49.3984 72.5257 53.6197 64.7746 61.1337C57.0235 68.6477 52.6689 78.8388 52.6689 89.4652C52.6689 100.092 57.0235 110.283 64.7746 117.797C72.5257 125.311 83.0384 129.532 94.0001 129.532Z" stroke="white" stroke-width="13.5625" stroke-miterlimit="10" stroke-linecap="round"/>
</g>
<rect x="0.4" y="0.710059" width="185.2" height="179.51" rx="89.755" stroke="#499A5A" stroke-width="0.8"/>
<defs>
<clipPath id="clip0_47_69">
<rect y="0.310059" width="186" height="180.31" rx="90.155" fill="white"/>
</clipPath>
</defs>
</svg>
