<svg width="21" height="31" viewBox="0 0 21 31" fill="none" xmlns="http://www.w3.org/2000/svg">
<g opacity="0.6">
<mask id="path-1-outside-1_1619_3459" maskUnits="userSpaceOnUse" x="6.33669" y="7.0705" width="6.13729" height="15.0544" fill="black">
<rect fill="white" x="6.33669" y="7.0705" width="6.13729" height="15.0544"/>
<path d="M9.20718 20.0997L9.19487 18.7571L10.4938 18.7451L10.5061 20.0878L9.20718 20.0997ZM9.18309 17.4728L9.11082 9.59179L10.4097 9.57988L10.482 17.4608L9.18309 17.4728Z"/>
</mask>
<path d="M9.20718 20.0997L9.19487 18.7571L10.4938 18.7451L10.5061 20.0878L9.20718 20.0997ZM9.18309 17.4728L9.11082 9.59179L10.4097 9.57988L10.482 17.4608L9.18309 17.4728Z" fill="#524030"/>
<path d="M9.20718 20.0997L7.38288 20.1165L7.39961 21.9408L9.22391 21.924L9.20718 20.0997ZM9.19487 18.7571L9.17814 16.9328L7.35384 16.9495L7.37057 18.7738L9.19487 18.7571ZM10.4938 18.7451L12.3181 18.7284L12.3013 16.9041L10.477 16.9208L10.4938 18.7451ZM10.5061 20.0878L10.5228 21.9121L12.3471 21.8954L12.3304 20.0711L10.5061 20.0878ZM9.18309 17.4728L7.35879 17.4895L7.37552 19.3138L9.19982 19.297L9.18309 17.4728ZM9.11082 9.59179L9.09409 7.7675L7.2698 7.78422L7.28652 9.60852L9.11082 9.59179ZM10.4097 9.57988L12.234 9.56315L12.2173 7.73886L10.393 7.75558L10.4097 9.57988ZM10.482 17.4608L10.4987 19.2851L12.323 19.2684L12.3063 17.4441L10.482 17.4608ZM11.0315 20.083L11.0192 18.7403L7.37057 18.7738L7.38288 20.1165L11.0315 20.083ZM9.2116 20.5814L10.5105 20.5694L10.477 16.9208L9.17814 16.9328L9.2116 20.5814ZM8.66947 18.7619L8.68178 20.1046L12.3304 20.0711L12.3181 18.7284L8.66947 18.7619ZM10.4894 18.2635L9.19045 18.2754L9.22391 21.924L10.5228 21.9121L10.4894 18.2635ZM11.0074 17.456L10.9351 9.57506L7.28652 9.60852L7.35879 17.4895L11.0074 17.456ZM9.12755 11.4161L10.4264 11.4042L10.393 7.75558L9.09409 7.7675L9.12755 11.4161ZM8.58542 9.59661L8.65769 17.4776L12.3063 17.4441L12.234 9.56315L8.58542 9.59661ZM10.4653 15.6365L9.16636 15.6485L9.19982 19.297L10.4987 19.2851L10.4653 15.6365Z" fill="#EEAE0A" mask="url(#path-1-outside-1_1619_3459)"/>
</g>
<path d="M19.2288 15.515C19.275 20.5555 15.241 24.6738 10.225 24.7198C5.20911 24.7658 1.10019 20.7222 1.05396 15.6816C1.00774 10.6411 5.04182 6.52282 10.0577 6.47682C15.0737 6.43083 19.1826 10.4744 19.2288 15.515Z" stroke="#EEAE0A" stroke-width="1.82437"/>
</svg>
