<svg width="141" height="110" viewBox="0 0 141 110" fill="none" xmlns="http://www.w3.org/2000/svg">
<g opacity="0.9">
<path d="M31.7895 61.1104C34.5325 61.11 37.2268 61.6796 39.5993 62.7613C41.9717 63.843 43.9379 65.3984 45.2986 67.2698C46.6592 69.1411 47.3659 71.2618 47.3469 73.417C47.328 75.5721 46.5841 77.685 45.1906 79.5414L23.8873 62.8031C26.2816 61.6943 29.0103 61.1098 31.7895 61.1104ZM18.3884 67.1236C16.6346 69.458 15.9182 72.1842 16.352 74.8735C16.7858 77.5627 18.3451 80.0623 20.7847 81.9791C23.2242 83.8959 26.4056 85.1211 29.8283 85.4619C33.2509 85.8027 36.7207 85.2399 39.6917 83.8619L18.3884 67.1236Z" fill="#111111"/>
<path fill-rule="evenodd" clip-rule="evenodd" d="M20.1232 0C19.0918 0 18.1026 0.321922 17.3733 0.894947C16.644 1.46797 16.2343 2.24516 16.2343 3.05554V13.2396C16.2343 14.05 16.644 14.8272 17.3733 15.4002C18.1026 15.9733 19.0918 16.2952 20.1232 16.2952H27.9009V21.3888H14.2898C12.7427 21.3815 11.2553 21.8574 10.1548 22.7117C9.05425 23.5661 8.43077 24.729 8.42149 25.9446C8.41221 27.1601 9.01789 28.3288 10.1053 29.1935C11.1927 30.0582 12.6727 30.5481 14.2198 30.5554C14.1711 30.7214 14.1047 30.8839 14.0215 31.0412L1.33205 53.8294C0.901874 54.6011 0.679439 55.4344 0.678711 56.2769V106.944C0.678711 107.754 1.08843 108.531 1.81774 109.104C2.54705 109.677 3.5362 109.999 4.5676 109.999H59.012C60.0434 109.999 61.0326 109.677 61.7619 109.104C62.4912 108.531 62.9009 107.754 62.9009 106.944V56.2769C62.9002 55.4344 62.6778 54.6011 62.2476 53.8294L49.5582 31.0381C49.4765 30.8817 49.4114 30.7202 49.3637 30.5554C50.1297 30.5516 50.8873 30.4292 51.5932 30.1954C52.2991 29.9615 52.9394 29.6207 53.4777 29.1924C54.0159 28.7641 54.4415 28.2567 54.7302 27.6992C55.0189 27.1417 55.165 26.5449 55.1601 25.943C55.1553 25.3411 54.9996 24.7459 54.7019 24.1913C54.4043 23.6367 53.9705 23.1336 53.4254 22.7106C52.8803 22.2877 52.2345 21.9533 51.525 21.7265C50.8154 21.4997 50.0559 21.3849 49.2898 21.3888H35.6787V16.2952H43.4565C44.4879 16.2952 45.477 15.9733 46.2064 15.4002C46.9357 14.8272 47.3454 14.05 47.3454 13.2396V3.05554C47.3454 2.24516 46.9357 1.46797 46.2064 0.894947C45.477 0.321922 44.4879 0 43.4565 0H20.1232ZM31.7898 12.2221C33.1652 12.2221 34.4842 11.7929 35.4568 11.0287C36.4293 10.2646 36.9757 9.22823 36.9757 8.14759C36.9757 7.06695 36.4293 6.03057 35.4568 5.26644C34.4842 4.50231 33.1652 4.07303 31.7898 4.07303C30.4145 4.07303 29.0954 4.50231 28.1229 5.26644C27.1503 6.03057 26.604 7.06695 26.604 8.14759C26.604 9.22823 27.1503 10.2646 28.1229 11.0287C29.0954 11.7929 30.4145 12.2221 31.7898 12.2221ZM31.7898 54.9997C37.9782 54.9997 43.9131 56.9312 48.289 60.3693C52.6648 63.8075 55.1232 68.4706 55.1232 73.3329C55.1232 78.1952 52.6648 82.8583 48.289 86.2964C43.9131 89.7346 37.9782 91.6661 31.7898 91.6661C25.6014 91.6661 19.6665 89.7346 15.2907 86.2964C10.9148 82.8583 8.45649 78.1952 8.45649 73.3329C8.45649 68.4706 10.9148 63.8075 15.2907 60.3693C19.6665 56.9312 25.6014 54.9997 31.7898 54.9997Z" fill="#111111"/>
<path d="M140.679 103.889C140.679 107.265 138.248 110 121.234 110C107.643 110 103.357 108.255 102.183 105.832C100.771 107.412 98.1304 108.732 94.887 109.285C92.1298 109.758 89.4737 109.584 87.432 108.924C84.247 110.29 80.1404 110.498 76.6287 108.713C72.732 106.733 70.6787 102.871 70.6787 97.7777C70.6787 96.9673 71.0884 96.1901 71.8177 95.6171C72.547 95.0441 73.5362 94.7222 74.5676 94.7222C75.599 94.7222 76.5882 95.0441 77.3175 95.6171C78.0468 96.1901 78.4565 96.9673 78.4565 97.7777C78.4565 101.75 80.0276 103.162 80.8559 103.583C81.692 104.011 82.8898 104.023 84.0215 103.406L84.177 103.327C85.3437 101.411 88.2993 99.7332 92.0559 99.0885C97.2398 98.2024 102.066 99.5988 103.108 102.224C103.975 101.594 105.247 100.931 106.83 100.314L98.7954 93.005H94.3387C93.4759 93.0053 92.6285 92.8252 91.8835 92.4831C91.1386 92.1411 90.5229 91.6494 90.0998 91.0586L82.847 80.9448C82.361 80.24 82.2468 79.4135 82.5291 78.6432C82.8115 77.873 83.4677 77.2207 84.3564 76.8271C85.2451 76.4335 86.295 76.33 87.2799 76.539C88.2648 76.748 89.1058 77.2526 89.6215 77.9442L96.0382 86.8908H99.6859C101.381 86.8908 102.991 87.4714 104.1 88.4797L112.753 96.3538C113.414 96.9558 113.725 97.7044 113.698 98.4407C114.245 98.345 114.805 98.2574 115.378 98.178L115.899 91.3886L110.318 88.8586C109.022 88.2712 108.063 87.3152 107.639 86.1881C107.215 85.0611 107.358 83.849 108.039 82.8025L113.052 75.0934C113.275 74.724 113.59 74.3935 113.979 74.1216C114.367 73.8496 114.822 73.6417 115.314 73.5101C115.807 73.3786 116.328 73.3261 116.847 73.3557C117.366 73.3853 117.872 73.4965 118.336 73.6826C118.799 73.8687 119.21 74.126 119.545 74.4392C119.879 74.7524 120.13 75.1152 120.283 75.506C120.436 75.8969 120.487 76.3078 120.434 76.7146C120.381 77.1213 120.225 77.5156 119.974 77.8739L115.805 84.2906L120.826 86.5669C121.765 86.9929 122.534 87.6159 123.047 88.3661C123.56 89.1163 123.797 89.964 123.731 90.8141L123.198 97.8235L123.902 97.8602L131.108 92.6322L127.441 87.783C127.004 87.2057 126.768 86.5481 126.758 85.8764C126.748 85.2048 126.963 84.5429 127.383 83.9575L132.913 76.2301C133.163 75.8802 133.498 75.5724 133.9 75.3244C134.302 75.0764 134.761 74.8929 135.253 74.7845C135.745 74.6762 136.259 74.645 136.766 74.6927C137.274 74.7405 137.764 74.8662 138.209 75.0628C138.655 75.2595 139.046 75.5231 139.362 75.8386C139.678 76.1542 139.911 76.5155 140.049 76.9019C140.187 77.2884 140.227 77.6924 140.166 78.0909C140.105 78.4894 139.945 78.8746 139.695 79.2245L134.989 85.8L138.598 90.5727C139.281 91.4751 139.549 92.5343 139.357 93.5732C139.165 94.6121 138.525 95.5678 137.544 96.2805L133.15 99.4674C137.731 100.833 140.679 102.706 140.679 103.889Z" fill="#111111"/>
<path fill-rule="evenodd" clip-rule="evenodd" d="M136.79 42.1664C139.186 43.1992 140.679 45.1761 140.679 47.3303V61.1107H101.79V47.3303C101.79 45.1761 103.283 43.1992 105.679 42.1664V18.9443C103.283 17.9116 101.79 15.9346 101.79 13.7805V0H140.679V13.7805C140.679 15.9346 139.186 17.9116 136.79 18.9443V42.1664ZM113.457 18.8099C113.457 16.6557 111.963 14.6788 109.568 13.646V11.5224H132.901V13.6491C130.506 14.6788 129.012 16.6557 129.012 18.8099V42.3008C129.012 44.455 130.506 46.4319 132.901 47.4647V49.5883H109.568V47.4617C111.963 46.4319 113.457 44.455 113.457 42.3008V18.8099Z" fill="#111111"/>
</g>
</svg>
