<svg width="98" height="100" viewBox="0 0 98 100" fill="none" xmlns="http://www.w3.org/2000/svg">
<path d="M16.3335 24.8332C16.3335 22.9476 16.3335 22.0048 16.9193 21.419C17.5051 20.8333 18.4479 20.8333 20.3335 20.8333H39.1529C39.9818 20.8333 40.3963 20.8333 40.7679 20.9894C41.1395 21.1455 41.4296 21.4415 42.0098 22.0335L51.9072 32.133C52.4874 32.725 52.7775 33.021 53.1491 33.1771C53.5207 33.3333 53.9352 33.3333 54.7641 33.3333H77.6668C79.5524 33.3333 80.4953 33.3333 81.081 33.919C81.6668 34.5048 81.6668 35.4476 81.6668 37.3333V75.1666C81.6668 77.0522 81.6668 77.995 81.081 78.5808C80.4953 79.1666 79.5524 79.1666 77.6668 79.1666H20.3335C18.4479 79.1666 17.5051 79.1666 16.9193 78.5808C16.3335 77.995 16.3335 77.0522 16.3335 75.1666V24.8332Z" stroke="#33363F" stroke-opacity="0.55" stroke-width="8"/>
<path d="M34.7511 59.5137L46.6487 70.6902C46.9731 70.9949 47.1353 71.1473 47.3333 71.1473C47.5314 71.1473 47.6936 70.9949 48.018 70.6902L59.9155 59.5137C63.1758 56.451 63.5718 51.411 60.8297 47.8768L60.3141 47.2122C57.0338 42.9843 50.4494 43.6934 48.1444 48.5228C47.8189 49.2049 46.8478 49.2049 46.5222 48.5228C44.2173 43.6934 37.6329 42.9843 34.3526 47.2122L33.837 47.8768C31.0949 51.411 31.4908 56.451 34.7511 59.5137Z" fill="#7C7C7C" stroke="#7C7C7C" stroke-width="2"/>
</svg>



