<svg width="87" height="87" viewBox="0 0 87 87" fill="none" xmlns="http://www.w3.org/2000/svg">
<path d="M43.4999 3.9082C31.3182 3.9082 21.41 13.8163 21.41 25.998C21.41 38.1797 31.3182 48.0879 43.4999 48.0879C55.6816 48.0879 65.5897 38.1797 65.5897 25.998C65.5897 13.8163 55.6816 3.9082 43.4999 3.9082ZM42.0844 9.19736L40.0838 15.1864L48.9443 14.2581L48.0631 11.2918L50.5481 11.9798V15.2707L54.4296 15.5239L53.6704 12.5707L55.7106 11.389C59.882 14.8772 62.5311 20.1216 62.5311 25.998C62.5311 28.8303 61.9151 31.5156 60.8107 33.9286L56.3706 34.68V40.0288C55.5237 40.8061 54.6081 41.5051 53.635 42.1172L51.7292 39.1524L48.016 40.1651L49.0594 44.2069C47.2569 44.7537 45.3834 45.0308 43.4999 45.0293C38.2301 45.0293 33.4682 42.8993 30.0256 39.4514L33.4172 38.9838L35.6959 34.5111L28.4382 30.8826L33.5859 26.4942L29.1136 22.7814L24.5439 24.3044C25.0727 18.281 28.3931 13.0721 33.2089 9.97696L34.1768 17.7179L42.0844 9.19736ZM48.691 20.1092L42.5449 24.0473L47.9155 28.821L51.7943 27.6872L51.4361 32.3416L58.5371 30.5514L55.8517 24.4652L51.5555 24.5248L55.3745 21.243L48.6911 20.1092H48.691ZM42.3065 26.9712L39.0245 28.4031L41.3515 30.1336L42.3065 26.9712ZM34.5985 27.5071L32.3202 30.2072L38.6323 34.6435L34.5985 27.5071ZM44.753 28.9999L42.426 33.3562L48.0351 37.175L46.0657 34.3703L48.5122 31.4464L44.753 28.9999ZM10.2241 33.6549C8.72569 33.6316 7.19214 35.5398 7.18331 40.4317C7.17005 47.9343 6.44313 50.052 9.91514 58.5371C12.4611 64.7593 13.6028 69.5417 21.7499 73.4062C22.715 76.8084 22.3298 77.6084 21.6751 80.5158C21.0641 83.2301 27.3544 83.729 31.9611 81.4424C36.9043 78.746 36.4896 71.3223 35.6065 66.2881C34.5795 60.4336 31.3482 59.2168 28.5474 56.716C25.6392 52.5572 24.9624 45.0232 20.2457 41.984C19.2607 41.3493 14.2356 40.705 21.1398 57.9468C12.037 55.6922 13.6951 45.2412 13.0368 37.5035C12.8407 35.1991 11.5461 33.6751 10.2241 33.6547V33.6549ZM76.7757 33.6549C75.4537 33.6753 74.159 35.1991 73.963 37.5036C73.3047 45.2412 74.9628 55.6922 65.8599 57.9468C72.7643 40.7048 67.739 41.3493 66.754 41.984C62.0373 45.0232 61.3607 52.5572 58.4523 56.7162C55.6517 59.2168 52.4201 60.4336 51.3932 66.2881C50.5102 71.3223 50.0954 78.746 55.0386 81.4424C59.6453 83.7288 65.9357 83.2301 65.3245 80.5158C64.6699 77.6084 64.2847 76.8084 65.2499 73.4062C73.3969 69.5417 74.5386 64.7593 77.0846 58.5371C80.5566 50.052 79.8297 47.9343 79.8164 40.4319C79.8076 35.5398 78.274 33.6316 76.7757 33.6549Z" fill="#7C7C7C"/>
</svg>




