<svg width="97" height="40" viewBox="0 0 97 40" fill="none" xmlns="http://www.w3.org/2000/svg">
<mask id="mask0_176_456" style="mask-type:luminance" maskUnits="userSpaceOnUse" x="0" y="0" width="97" height="40">
<path d="M96.8219 39.2433H0V-3.05176e-05H96.8219V39.2433Z" fill="white"/>
</mask>
<g mask="url(#mask0_176_456)">
<path d="M0 21.2544V15.1419C26.8515 28.3351 35.7644 -13.7522 90.2669 11.848C92.2099 12.7575 93.8669 14.2724 95.0323 16.2049C96.1974 18.1374 96.8199 20.4024 96.8219 22.7191C37.3581 -9.02627 28.1681 35.0346 1.27213 23.3094C0.896948 23.1457 0.575168 22.8624 0.348383 22.496C0.121597 22.1297 0.000241589 21.6972 0 21.2544Z" fill="#458985"/>
<path d="M96.5673 36.6149C78.7235 45.382 68.8016 29.7381 48.1577 25.7671C59.782 23.5311 74.8083 24.998 96.5673 36.6149Z" fill="#67C973"/>
<path d="M0 25.8423C27.7156 39.4622 36.3206 -5.81725 95.671 25.2339C96.0151 25.4137 96.3058 25.6966 96.5096 26.0498C96.7131 26.4031 96.8215 26.8124 96.8219 27.2304V33.4206C42.917 4.64351 30.3259 38.1607 8.40647 35.944C6.10899 35.7124 3.97327 34.5481 2.41811 32.6793C0.862957 30.8106 0.000557667 28.3722 0 25.8423Z" fill="#67C973"/>
<path d="M0.254883 11.7303C18.095 20.4974 28.0186 4.85348 48.6622 0.881715C37.0352 -1.35313 22.0119 0.113388 0.254883 11.7303Z" fill="#EF980C"/>
</g>
</svg>
