<svg width="40" height="40" viewBox="0 0 40 40" fill="none" xmlns="http://www.w3.org/2000/svg">
<path d="M22.3243 7.1972C21.5612 7.10011 20.7859 7.04446 20 7.03062C16.5658 7.04854 13.0059 8.03124 9.63624 9.91427C7.13431 11.37 4.69714 13.4251 2.58057 15.9601C1.54107 17.2541 0.214367 19.1279 0 21.127C0.0253334 22.8588 1.6051 24.9963 2.58057 26.294C4.56534 28.7294 6.93904 30.7257 9.63624 32.3398C9.72791 32.3921 9.81991 32.4439 9.91211 32.4949L7.40971 37.6359L10.8099 40L29.1904 2.35316L25.9176 0L22.3243 7.1972ZM30.0855 9.7649L27.5879 14.8571C28.7369 16.6132 29.419 18.7788 29.419 21.127C29.419 26.98 25.2016 31.7252 19.9976 31.7252C19.7726 31.7252 19.5546 31.6966 19.3335 31.6792L17.6806 35.0453C18.4429 35.1414 19.2136 35.2113 20 35.2234C23.4374 35.2052 26.9954 34.2112 30.3613 32.3398C32.8633 30.8841 35.3029 28.829 37.4194 26.294C38.459 25 39.7856 23.1262 40 21.127C39.9747 19.3953 38.3949 17.2578 37.4194 15.96C35.4347 13.5246 33.0585 11.5283 30.3613 9.91419C30.2703 9.86227 30.1771 9.81557 30.0855 9.7649ZM19.9976 10.5289C20.2258 10.5289 20.4522 10.5397 20.6763 10.5576L18.7402 14.501C16.0231 15.1491 13.9844 17.8687 13.9844 21.1242C13.9844 21.9419 14.1124 22.7248 14.3481 23.4505C14.3484 23.4514 14.3479 23.4526 14.3481 23.4534L12.4072 27.4083C11.2555 25.6507 10.5761 23.478 10.5761 21.127C10.5762 15.2741 14.7936 10.5289 19.9976 10.5289ZM25.6299 18.8437L21.2671 27.7358C23.9697 27.0755 25.9937 24.3683 25.9937 21.1242C25.9937 20.3213 25.8575 19.558 25.6299 18.8437Z" fill="#545454"/>
</svg>
