<svg width="88" height="74" viewBox="0 0 88 74" fill="none" xmlns="http://www.w3.org/2000/svg">
<path d="M0.364258 24.4583H11.2393V0.125H22.1143L40.7105 24.4583H65.6143V0.125H76.4893V24.4583H87.3643V32.5694H76.4893V40.6806H87.3643V48.7917H76.4893V73.125H65.6143L46.9636 48.7917H22.1143V73.125H11.2393V48.7917H0.364258V40.6806H11.2393V32.5694H0.364258V24.4583ZM22.1143 24.4583H28.2586L22.1143 16.4689V24.4583ZM22.1143 32.5694V40.6806H40.7105L34.5118 32.5694H22.1143ZM65.6143 56.9028V48.7917H59.3611L65.6143 56.9028ZM46.9093 32.5694L53.1624 40.6806H65.6143V32.5694H46.9093Z" fill="#7C7C7C"/>
</svg>






