<svg width="30" height="30" viewBox="0 0 30 30" fill="none" xmlns="http://www.w3.org/2000/svg">
<path d="M2.96988 8.70343C2.41894 5.85876 4.98423 3.29924 8.90302 2.36007C9.59882 2.19343 10.3497 2.24079 11.0024 2.49248C11.6551 2.74417 12.1605 3.18123 12.4155 3.71452L13.6721 6.33966C13.8741 6.76194 13.9104 7.22181 13.7761 7.66031C13.6419 8.0988 13.3433 8.49592 12.9187 8.80074L9.18067 11.4836C8.99596 11.6159 8.85834 11.7835 8.78128 11.97C8.70423 12.1564 8.69037 12.3553 8.74107 12.5472L8.77432 12.6649L8.86687 12.9602C8.9493 13.2092 9.07366 13.56 9.24863 13.9786C9.59568 14.8103 10.1495 15.9282 10.9738 17.0451C11.798 18.1619 12.7582 19.0965 13.5044 19.7472C13.8933 20.0857 14.2995 20.4118 14.7219 20.7248L14.8376 20.8085C15.0246 20.9381 15.2513 21.0276 15.4956 21.0682C15.7398 21.1089 15.9934 21.0993 16.2316 21.0405L21.0701 19.849C21.6198 19.7138 22.2087 19.7101 22.761 19.8386C23.3134 19.967 23.8042 20.2216 24.1704 20.5698L26.4595 22.7446C27.4139 23.6498 27.3011 24.9805 26.2036 25.7805C23.2045 27.9677 19.0803 28.4169 16.2114 26.611C12.6956 24.391 9.73114 21.6843 7.46565 18.6258C5.18352 15.5684 3.6583 12.2029 2.96988 8.70343ZM11.7705 12.6955L14.8738 10.4686C15.723 9.85898 16.3201 9.06474 16.5886 8.18775C16.8571 7.31076 16.7846 6.39101 16.3805 5.54646L15.1225 2.92131C14.6092 1.84877 13.5926 0.969761 12.2797 0.463476C10.9669 -0.0428097 9.45674 -0.138257 8.05708 0.196591C3.19113 1.3632 -0.7161 4.77702 0.11104 9.04175C0.853535 12.8232 2.50042 16.4612 4.96543 19.7653C7.40896 23.0635 10.6062 25.9823 14.398 28.3762C18.7 31.0805 24.4466 30.1584 28.176 27.437C29.2437 26.6591 29.8917 25.5915 29.9876 24.4524C30.0835 23.3133 29.6202 22.1884 28.6922 21.3075L26.4031 19.1327C25.6706 18.4362 24.6888 17.9268 23.5837 17.6699C22.4786 17.4131 21.3007 17.4205 20.201 17.6912L16.1853 18.6801C16.0055 18.5355 15.8296 18.388 15.6575 18.2377C14.8319 17.5234 14.1018 16.745 13.4783 15.9147C12.8707 15.0769 12.3741 14.1927 11.9961 13.2759C11.9159 13.0841 11.8406 12.8909 11.7705 12.6966" fill="white"/>
</svg>
