<svg width="139" height="105" viewBox="0 0 139 105" fill="none" xmlns="http://www.w3.org/2000/svg">
<path d="M40.3859 34.3481L50.0532 38.6901L67.8232 14.8523L80.3963 31.7429L65.8674 38.2559L96.3782 44.5953L104.593 20.8878L90.0637 27.4008L77.4905 10.4669C76.7611 9.47693 75.7866 8.60899 74.6233 7.91315C73.46 7.21731 72.1309 6.70734 70.7126 6.41266C69.2944 6.11799 67.8151 6.04443 66.3601 6.19625C64.905 6.34807 63.5031 6.72225 62.2352 7.2972C60.7264 7.94851 59.4411 8.90376 58.4912 10.0327M56.2001 86.8433V78.1592H20.7718L33.289 61.2253L47.818 67.7383L39.6594 44.0308L9.09277 50.3702L23.6217 56.8832L11.0486 73.8172C10.095 75.1026 9.58043 76.5562 9.55391 78.0398C9.52738 79.5233 9.98974 80.9875 10.897 82.293C11.8043 83.5985 13.1263 84.702 14.7374 85.4985C16.3484 86.2949 18.1949 86.7579 20.1012 86.8433M106.828 49.936L97.1046 54.278L114.875 78.1592H89.7284V65.1331L67.3762 82.5012L89.7284 99.8694V86.8433H114.875C121.077 86.8433 126.051 82.9789 126.051 78.1592C126.051 76.8132 125.604 75.4671 124.821 74.2948L106.828 49.936Z" fill="#7C7C7C"/>
</svg>
