<svg width="114" height="114" viewBox="0 0 114 114" fill="none" xmlns="http://www.w3.org/2000/svg">
<g clip-path="url(#clip0_800_396)">
<mask id="path-1-inside-1_800_396" fill="white">
<path d="M38.3468 21.1931C36.8582 21.1991 35.4088 21.6707 34.2016 22.5416C32.9943 23.4125 32.0897 24.6391 31.6144 26.0498L26.1996 42.3861H0.485412V71.417C0.4789 72.985 0.996854 74.5101 1.9569 75.7499C2.91694 76.9896 4.26394 77.8727 5.78367 78.2588L14.9461 80.5795C15.6051 83.754 17.3358 86.6053 19.8479 88.655C22.36 90.7046 25.5006 91.828 28.7428 91.8365C35.2844 91.8365 40.7451 87.3118 42.3204 81.24H75.212C76.7874 87.3118 82.2481 91.8365 88.7897 91.8365C95.3313 91.8365 100.792 87.3118 102.367 81.24H106.451C110.315 81.24 113.515 78.0398 113.515 74.1756V60.93C113.508 57.8597 112.503 54.8749 110.652 52.4258C108.8 49.9766 106.202 48.1959 103.25 47.3523L87.2426 42.8276L73.4459 26.2688C72.1258 24.6813 70.4725 23.4037 68.6034 22.5265C66.7343 21.6493 64.6951 21.1941 62.6304 21.1931H38.3468ZM38.3468 28.2574H49.9358V42.3861H33.5995L38.3468 28.2574ZM57.0002 28.2574H62.6304C64.725 28.2574 66.6995 29.1828 68.0382 30.797L77.7517 42.3861H57.0002V28.2574ZM7.54976 49.4504H84.7065L101.371 54.1977C102.842 54.6032 104.137 55.4831 105.055 56.7006C105.974 57.9181 106.464 59.4049 106.451 60.93V74.1756H102.367C100.792 68.1038 95.3313 63.5791 88.7897 63.5791C82.2481 63.5791 76.7874 68.1038 75.212 74.1756H42.3204C40.7451 68.1038 35.2844 63.5791 28.7428 63.5791C22.4802 63.5791 17.2208 67.7188 15.3876 73.4021L7.54976 71.4205V49.4504ZM28.7428 70.6435C32.6882 70.6435 35.8071 73.7624 35.8071 77.7078C35.8071 81.6532 32.6882 84.7721 28.7428 84.7721C24.7973 84.7721 21.6784 81.6532 21.6784 77.7078C21.6784 73.7624 24.7973 70.6435 28.7428 70.6435ZM88.7897 70.6435C92.7351 70.6435 95.854 73.7624 95.854 77.7078C95.854 81.6532 92.7351 84.7721 88.7897 84.7721C84.8443 84.7721 81.7254 81.6532 81.7254 77.7078C81.7254 73.7624 84.8443 70.6435 88.7897 70.6435Z"/>
</mask>
<path d="M38.3468 21.1931C36.8582 21.1991 35.4088 21.6707 34.2016 22.5416C32.9943 23.4125 32.0897 24.6391 31.6144 26.0498L26.1996 42.3861H0.485412V71.417C0.4789 72.985 0.996854 74.5101 1.9569 75.7499C2.91694 76.9896 4.26394 77.8727 5.78367 78.2588L14.9461 80.5795C15.6051 83.754 17.3358 86.6053 19.8479 88.655C22.36 90.7046 25.5006 91.828 28.7428 91.8365C35.2844 91.8365 40.7451 87.3118 42.3204 81.24H75.212C76.7874 87.3118 82.2481 91.8365 88.7897 91.8365C95.3313 91.8365 100.792 87.3118 102.367 81.24H106.451C110.315 81.24 113.515 78.0398 113.515 74.1756V60.93C113.508 57.8597 112.503 54.8749 110.652 52.4258C108.8 49.9766 106.202 48.1959 103.25 47.3523L87.2426 42.8276L73.4459 26.2688C72.1258 24.6813 70.4725 23.4037 68.6034 22.5265C66.7343 21.6493 64.6951 21.1941 62.6304 21.1931H38.3468ZM38.3468 28.2574H49.9358V42.3861H33.5995L38.3468 28.2574ZM57.0002 28.2574H62.6304C64.725 28.2574 66.6995 29.1828 68.0382 30.797L77.7517 42.3861H57.0002V28.2574ZM7.54976 49.4504H84.7065L101.371 54.1977C102.842 54.6032 104.137 55.4831 105.055 56.7006C105.974 57.9181 106.464 59.4049 106.451 60.93V74.1756H102.367C100.792 68.1038 95.3313 63.5791 88.7897 63.5791C82.2481 63.5791 76.7874 68.1038 75.212 74.1756H42.3204C40.7451 68.1038 35.2844 63.5791 28.7428 63.5791C22.4802 63.5791 17.2208 67.7188 15.3876 73.4021L7.54976 71.4205V49.4504ZM28.7428 70.6435C32.6882 70.6435 35.8071 73.7624 35.8071 77.7078C35.8071 81.6532 32.6882 84.7721 28.7428 84.7721C24.7973 84.7721 21.6784 81.6532 21.6784 77.7078C21.6784 73.7624 24.7973 70.6435 28.7428 70.6435ZM88.7897 70.6435C92.7351 70.6435 95.854 73.7624 95.854 77.7078C95.854 81.6532 92.7351 84.7721 88.7897 84.7721C84.8443 84.7721 81.7254 81.6532 81.7254 77.7078C81.7254 73.7624 84.8443 70.6435 88.7897 70.6435Z" fill="#7C7C7C"/>
<path d="M38.3468 21.1931V-178.807H37.9378L37.5288 -178.805L38.3468 21.1931ZM31.6144 26.0498L-157.916 -37.8099L-158.074 -37.3431L-158.229 -36.8755L31.6144 26.0498ZM26.1996 42.3861V242.386H170.608L216.043 105.311L26.1996 42.3861ZM0.485412 42.3861V-157.614H-199.515V42.3861H0.485412ZM0.485412 71.417L200.484 72.2477L200.485 71.8324V71.417H0.485412ZM5.78367 78.2588L-43.4608 272.101L-43.391 272.119L-43.3211 272.137L5.78367 78.2588ZM14.9461 80.5795L210.772 39.9301L185.341 -82.5786L64.0509 -113.299L14.9461 80.5795ZM28.7428 91.8365L28.2173 291.836L28.48 291.836H28.7428V91.8365ZM42.3204 81.24V-118.76H-112.411L-151.27 31.0124L42.3204 81.24ZM75.212 81.24L268.802 31.0124L229.943 -118.76H75.212V81.24ZM102.367 81.24V-118.76H-52.364L-91.2229 31.0124L102.367 81.24ZM113.515 60.93H313.515V60.711L313.514 60.492L113.515 60.93ZM103.25 47.3523L158.204 -144.95L157.927 -145.029L157.65 -145.107L103.25 47.3523ZM87.2426 42.8276L-66.4124 170.852L-26.7628 218.439L32.8426 235.287L87.2426 42.8276ZM73.4459 26.2688L-80.3293 154.148L-80.2692 154.221L-80.2091 154.293L73.4459 26.2688ZM62.6304 21.1931L62.7294 -178.807L62.6799 -178.807H62.6304V21.1931ZM38.3468 28.2574V-171.743H-105.441L-151.238 -35.443L38.3468 28.2574ZM49.9358 28.2574H249.936V-171.743H49.9358V28.2574ZM49.9358 42.3861V242.386H249.936V42.3861H49.9358ZM33.5995 42.3861L-155.985 -21.3143L-244.588 242.386H33.5995V42.3861ZM57.0002 28.2574V-171.743H-143V28.2574H57.0002ZM68.0382 30.797L-85.9094 158.469L-85.5766 158.87L-85.2417 159.27L68.0382 30.797ZM77.7517 42.3861V242.386H506.344L231.032 -86.0868L77.7517 42.3861ZM57.0002 42.3861H-143V242.386H57.0002V42.3861ZM7.54976 49.4504V-150.55H-192.45V49.4504H7.54976ZM84.7065 49.4504L139.5 -142.897L112.638 -150.55H84.7065V49.4504ZM101.371 54.1977L46.5779 246.545L47.3824 246.775L48.1889 246.997L101.371 54.1977ZM106.451 60.93L-93.5414 59.1404L-93.5494 60.0352V60.93H106.451ZM106.451 74.1756V274.176H306.451V74.1756H106.451ZM102.367 74.1756L-91.2229 124.403L-52.364 274.176H102.367V74.1756ZM75.212 74.1756V274.176H229.943L268.802 124.403L75.212 74.1756ZM42.3204 74.1756L-151.27 124.403L-112.411 274.176H42.3204V74.1756ZM15.3876 73.4021L-33.6334 267.301L148.165 313.263L205.73 134.799L15.3876 73.4021ZM7.54976 71.4205H-192.45V227.15L-41.4713 265.32L7.54976 71.4205ZM37.5288 -178.805C-5.68566 -178.629 -47.7627 -164.94 -82.8095 -139.657L151.213 184.74C118.58 208.281 79.402 221.027 39.1647 221.191L37.5288 -178.805ZM-82.8095 -139.657C-117.856 -114.374 -144.118 -78.7626 -157.916 -37.8099L221.145 89.9095C208.297 128.041 183.845 161.199 151.213 184.74L-82.8095 -139.657ZM-158.229 -36.8755L-163.643 -20.5392L216.043 105.311L221.458 88.9751L-158.229 -36.8755ZM26.1996 -157.614H0.485412V242.386H26.1996V-157.614ZM-199.515 42.3861V71.417H200.485V42.3861H-199.515ZM-199.513 70.5863C-199.705 116.769 -184.449 161.69 -156.173 198.204L160.086 -46.7045C186.443 -12.6695 200.662 29.201 200.484 72.2477L-199.513 70.5863ZM-156.173 198.204C-127.896 234.719 -88.2222 260.73 -43.4608 272.101L55.0282 -115.584C96.7501 -104.985 133.73 -80.7394 160.086 -46.7045L-156.173 198.204ZM-43.3211 272.137L-34.1587 274.458L64.0509 -113.299L54.8885 -115.619L-43.3211 272.137ZM-180.879 121.229C-170.892 169.34 -144.662 212.554 -106.59 243.618L146.286 -66.3078C179.334 -39.3431 202.103 -1.83249 210.772 39.9301L-180.879 121.229ZM-106.59 243.618C-68.5176 274.682 -20.9198 291.707 28.2173 291.836L29.2683 -108.163C71.921 -108.051 113.238 -93.2726 146.286 -66.3078L-106.59 243.618ZM28.7428 291.836C130.661 291.836 212.542 221.535 235.911 131.468L-151.27 31.0124C-131.052 -46.9115 -60.0923 -108.164 28.7428 -108.164V291.836ZM42.3204 281.24H75.212V-118.76H42.3204V281.24ZM-118.378 131.468C-95.0099 221.535 -13.1285 291.836 88.7897 291.836V-108.164C177.625 -108.164 248.585 -46.9115 268.802 31.0124L-118.378 131.468ZM88.7897 291.836C190.708 291.836 272.589 221.535 295.958 131.468L-91.2229 31.0124C-71.0053 -46.9115 -0.0453566 -108.164 88.7897 -108.164V291.836ZM102.367 281.24H106.451V-118.76H102.367V281.24ZM106.451 281.24C220.771 281.24 313.515 188.497 313.515 74.1756H-86.4851C-86.4851 -32.4174 -0.141963 -118.76 106.451 -118.76V281.24ZM313.515 74.1756V60.93H-86.4851V74.1756H313.515ZM313.514 60.492C313.413 14.036 298.207 -31.1267 270.192 -68.1843L-48.8889 173.036C-73.2007 140.877 -86.3963 101.683 -86.4846 61.3679L313.514 60.492ZM270.192 -68.1843C242.177 -105.242 202.872 -132.185 158.204 -144.95L48.2971 239.654C9.53345 228.577 -24.5768 205.195 -48.8889 173.036L270.192 -68.1843ZM157.65 -145.107L141.643 -149.632L32.8426 235.287L48.8504 239.812L157.65 -145.107ZM240.898 -85.1964L227.101 -101.755L-80.2091 154.293L-66.4124 170.852L240.898 -85.1964ZM227.221 -101.611C207.143 -125.755 181.999 -145.186 153.572 -158.527L-16.3651 203.58C-41.0538 191.993 -62.8913 175.117 -80.3293 154.148L227.221 -101.611ZM153.572 -158.527C125.145 -171.868 94.1312 -178.791 62.7294 -178.807L62.5315 221.193C35.2591 221.18 8.32362 215.166 -16.3651 203.58L153.572 -158.527ZM62.6304 -178.807H38.3468V221.193H62.6304V-178.807ZM38.3468 228.257H49.9358V-171.743H38.3468V228.257ZM-150.064 28.2574V42.3861H249.936V28.2574H-150.064ZM49.9358 -157.614H33.5995V242.386H49.9358V-157.614ZM223.184 106.086L227.931 91.9578L-151.238 -35.443L-155.985 -21.3143L223.184 106.086ZM57.0002 228.257H62.6304V-171.743H57.0002V228.257ZM62.6304 228.257C5.31032 228.257 -49.1832 202.754 -85.9094 158.469L221.986 -96.875C182.582 -144.388 124.14 -171.743 62.6304 -171.743V228.257ZM-85.2417 159.27L-75.5282 170.859L231.032 -86.0868L221.318 -97.6759L-85.2417 159.27ZM77.7517 -157.614H57.0002V242.386H77.7517V-157.614ZM257 42.3861V28.2574H-143V42.3861H257ZM7.54976 249.45H84.7065V-150.55H7.54976V249.45ZM29.9131 241.798L46.5779 246.545L156.165 -138.15L139.5 -142.897L29.9131 241.798ZM48.1889 246.997C7.16457 235.681 -28.9718 211.128 -54.6025 177.156L264.713 -63.7546C237.245 -100.162 198.518 -126.474 154.554 -138.602L48.1889 246.997ZM-54.6025 177.156C-80.2333 143.183 -93.9222 101.695 -93.5414 59.1404L306.443 62.7196C306.851 17.1149 292.181 -27.3472 264.713 -63.7546L-54.6025 177.156ZM-93.5494 60.93V74.1756H306.451V60.93H-93.5494ZM106.451 -125.824H102.367V274.176H106.451V-125.824ZM295.958 23.948C272.589 -66.1194 190.708 -136.421 88.7897 -136.421V263.579C-0.0453566 263.579 -71.0053 202.327 -91.2229 124.403L295.958 23.948ZM88.7897 -136.421C-13.1285 -136.421 -95.0099 -66.1194 -118.378 23.948L268.802 124.403C248.585 202.327 177.625 263.579 88.7897 263.579V-136.421ZM75.212 -125.824H42.3204V274.176H75.212V-125.824ZM235.911 23.948C212.542 -66.1194 130.661 -136.421 28.7428 -136.421V263.579C-60.0923 263.579 -131.052 202.327 -151.27 124.403L235.911 23.948ZM28.7428 -136.421C-68.9529 -136.421 -147.924 -71.796 -174.955 12.005L205.73 134.799C182.366 207.234 113.913 263.579 28.7428 263.579V-136.421ZM64.4087 -120.497L56.5708 -122.479L-41.4713 265.32L-33.6334 267.301L64.4087 -120.497ZM207.55 71.4205V49.4504H-192.45V71.4205H207.55ZM28.7428 270.643C-77.7687 270.643 -164.193 184.219 -164.193 77.7078H235.807C235.807 -36.6946 143.145 -129.357 28.7428 -129.357V270.643ZM-164.193 77.7078C-164.193 -28.8037 -77.7687 -115.228 28.7428 -115.228V284.772C143.145 284.772 235.807 192.11 235.807 77.7078H-164.193ZM28.7428 -115.228C135.254 -115.228 221.678 -28.8037 221.678 77.7078H-178.322C-178.322 192.11 -85.6596 284.772 28.7428 284.772V-115.228ZM221.678 77.7078C221.678 184.219 135.254 270.643 28.7428 270.643V-129.357C-85.6596 -129.357 -178.322 -36.6946 -178.322 77.7078H221.678ZM88.7897 270.643C-17.7218 270.643 -104.146 184.219 -104.146 77.7078H295.854C295.854 -36.6946 203.192 -129.357 88.7897 -129.357V270.643ZM-104.146 77.7078C-104.146 -28.8037 -17.7218 -115.228 88.7897 -115.228V284.772C203.192 284.772 295.854 192.11 295.854 77.7078H-104.146ZM88.7897 -115.228C195.301 -115.228 281.725 -28.8037 281.725 77.7078H-118.275C-118.275 192.11 -25.6127 284.772 88.7897 284.772V-115.228ZM281.725 77.7078C281.725 184.219 195.301 270.643 88.7897 270.643V-129.357C-25.6127 -129.357 -118.275 -36.6946 -118.275 77.7078H281.725Z" fill="#7C7C7C" mask="url(#path-1-inside-1_800_396)"/>
</g>
<defs>
<clipPath id="clip0_800_396">
<rect width="113.029" height="113.029" fill="white" transform="translate(0.485352)"/>
</clipPath>
</defs>
</svg>
