<svg width="111" height="116" viewBox="0 0 111 116" fill="none" xmlns="http://www.w3.org/2000/svg">
<path opacity="0.9" d="M97.7 48.6395C77.3 36.9095 75.5 15.462 75.5 11.667H60.5V23.167H20.5V11.667H0.5C0.5 5.34199 9.5 0.166992 20.5 0.166992H90.5V5.91699C90.5 6.37699 90.9 32.5395 108.3 42.5445L97.7 48.6395ZM100.5 0.166992V11.667H110.5V0.166992H100.5ZM80.5 57.667C60.5 46.167 60.5 28.917 60.5 28.917H20.5V40.417C20.5 46.167 20.5 46.167 10.5 51.917C0.5 57.667 0.5 63.417 0.5 63.417V103.667C0.5 109.992 9.5 115.167 20.5 115.167H60.5C71.5 115.167 80.5 109.992 80.5 103.667V57.667Z" fill="#111111"/>
</svg>
