<svg width="20" height="20" viewBox="0 0 20 20" fill="none" xmlns="http://www.w3.org/2000/svg">
<g clip-path="url(#clip0_1189_369)">
<path d="M10.0007 17.4987C10.9856 17.4987 11.9608 17.3047 12.8708 16.9278C13.7807 16.5509 14.6075 15.9984 15.304 15.302C16.0004 14.6056 16.5528 13.7788 16.9297 12.8688C17.3067 11.9589 17.5006 10.9836 17.5006 9.9987C17.5006 9.01378 17.3067 8.03851 16.9297 7.12857C16.5528 6.21863 16.0004 5.39184 15.304 4.6954C14.6075 3.99896 13.7807 3.44651 12.8708 3.0696C11.9608 2.69269 10.9856 2.4987 10.0007 2.4987C8.01153 2.4987 6.10387 3.28887 4.69735 4.6954C3.29083 6.10192 2.50065 8.00957 2.50065 9.9987C2.50065 11.9878 3.29083 13.8955 4.69735 15.302C6.10387 16.7085 8.01153 17.4987 10.0007 17.4987ZM19.1673 9.9987C19.1673 15.0612 15.0631 19.1654 10.0007 19.1654C4.93815 19.1654 0.833984 15.0612 0.833984 9.9987C0.833984 4.9362 4.93815 0.832031 10.0007 0.832031C15.0631 0.832031 19.1673 4.9362 19.1673 9.9987ZM12.5007 13.677L9.16732 10.3437V4.58203H10.834V9.6537L13.679 12.4987L12.5007 13.677Z" fill="white"/>
</g>
<defs>
<clipPath id="clip0_1189_369">
<rect width="20" height="20" fill="white"/>
</clipPath>
</defs>
</svg>
