<svg width="150" height="115" viewBox="0 0 150 115" fill="none" xmlns="http://www.w3.org/2000/svg">
<path opacity="0.9" d="M129.545 23H95.4545V69H6.81818V92H13.6364C13.6364 98.1 15.7914 103.95 19.6274 108.263C23.4633 112.577 28.666 115 34.0909 115C39.5158 115 44.7185 112.577 48.5545 108.263C52.3904 103.95 54.5455 98.1 54.5455 92H95.4545C95.4545 98.1 97.6096 103.95 101.446 108.263C105.282 112.577 110.484 115 115.909 115C121.334 115 126.537 112.577 130.373 108.263C134.209 103.95 136.364 98.1 136.364 92H150V53.6667L129.545 23ZM34.0909 103.5C31.3785 103.5 28.7771 102.288 26.8591 100.132C24.9411 97.9751 23.8636 95.05 23.8636 92C23.8636 88.95 24.9411 86.0249 26.8591 83.8683C28.7771 81.7116 31.3785 80.5 34.0909 80.5C36.8034 80.5 39.4047 81.7116 41.3227 83.8683C43.2407 86.0249 44.3182 88.95 44.3182 92C44.3182 95.05 43.2407 97.9751 41.3227 100.132C39.4047 102.288 36.8034 103.5 34.0909 103.5ZM115.909 103.5C113.197 103.5 110.595 102.288 108.677 100.132C106.759 97.9751 105.682 95.05 105.682 92C105.682 88.95 106.759 86.0249 108.677 83.8683C110.595 81.7116 113.197 80.5 115.909 80.5C118.622 80.5 121.223 81.7116 123.141 83.8683C125.059 86.0249 126.136 88.95 126.136 92C126.136 95.05 125.059 97.9751 123.141 100.132C121.223 102.288 118.622 103.5 115.909 103.5ZM109.091 53.6667V34.5H126.136L139.5 53.6667H109.091ZM115.909 15.3333H88.6364V61.3333H13.6364L3.88636 23H0V7.66667H81.8182L88.6364 0H115.909V15.3333Z" fill="#111111"/>
</svg>
