<svg width="88" height="88" viewBox="0 0 88 88" fill="none" xmlns="http://www.w3.org/2000/svg">
<path d="M43.9242 0.250001C49.6108 0.248353 55.1482 1.97154 59.7237 5.16664C64.2992 8.36175 67.6717 12.8605 69.3463 18.0026C71.021 23.1446 70.9095 28.6592 69.0282 33.737C67.147 38.8147 63.5951 43.1881 58.8938 46.2153C67.0538 49.0472 74.1314 54.1251 79.2154 60.7955C84.2995 67.4658 87.1573 75.4233 87.4211 83.6435C87.4457 84.0998 87.3738 84.5562 87.2096 84.9858C87.0453 85.4154 86.7921 85.8097 86.4647 86.1455C86.1372 86.4813 85.7422 86.7518 85.3028 86.9412C84.8634 87.1306 84.3885 87.2351 83.9058 87.2485C83.4232 87.2619 82.9426 87.184 82.4922 87.0193C82.0418 86.8546 81.6307 86.6065 81.283 86.2894C80.9353 85.9724 80.6581 85.5928 80.4675 85.173C80.2769 84.7533 80.1769 84.3017 80.1732 83.8448C79.8853 74.9302 75.9402 66.4719 69.1741 60.2625C62.408 54.053 53.3525 50.5803 43.9267 50.5803C34.5008 50.5803 25.4453 54.053 18.6792 60.2625C11.9131 66.4719 7.96804 74.9302 7.68011 83.8448C7.65126 84.7549 7.24152 85.6168 6.54105 86.241C5.84058 86.8651 4.90674 87.2005 3.94497 87.1732C2.9832 87.1459 2.07229 86.7582 1.41262 86.0954C0.752951 85.4326 0.398562 84.549 0.427415 83.639C0.692129 75.4195 3.5504 67.4631 8.63437 60.7936C13.7183 54.1242 20.7954 49.0469 28.9547 46.2153C24.2534 43.1881 20.7015 38.8147 18.8203 33.737C16.939 28.6592 16.8275 23.1446 18.5021 18.0026C20.1768 12.8605 23.5493 8.36175 28.1248 5.16664C32.7002 1.97154 38.2376 0.248353 43.9242 0.250001ZM24.5837 25.4126C24.5837 30.2661 26.6214 34.9208 30.2484 38.3528C33.8755 41.7847 38.7948 43.7127 43.9242 43.7127C49.0537 43.7127 53.973 41.7847 57.6 38.3528C61.2271 34.9208 63.2647 30.2661 63.2647 25.4126C63.2647 20.5591 61.2271 15.9044 57.6 12.4725C53.973 9.04058 49.0537 7.11254 43.9242 7.11254C38.7948 7.11254 33.8755 9.04058 30.2484 12.4725C26.6214 15.9044 24.5837 20.5591 24.5837 25.4126Z" fill="#7C7C7C"/>
</svg>







