<svg width="18" height="18" viewBox="0 0 18 18" fill="none" xmlns="http://www.w3.org/2000/svg">
<path d="M1.78193 5.22206C1.45136 3.51526 2.99054 1.97955 5.34181 1.41604C5.75929 1.31606 6.20979 1.34447 6.60142 1.49549C6.99304 1.6465 7.29628 1.90874 7.44929 2.22871L8.20326 3.8038C8.32448 4.05716 8.34621 4.33309 8.26567 4.59618C8.18513 4.85928 8.00599 5.09755 7.75122 5.28044L5.5084 6.89016C5.39758 6.96955 5.31501 7.07011 5.26877 7.18198C5.22253 7.29385 5.21422 7.4132 5.24464 7.52834L5.26459 7.59895L5.32012 7.77614C5.36958 7.92551 5.44419 8.13597 5.54918 8.38717C5.75741 8.88617 6.08971 9.55694 6.58426 10.227C7.07881 10.8971 7.65491 11.4579 8.10261 11.8483C8.33597 12.0514 8.57969 12.2471 8.83316 12.4349L8.90257 12.4851C9.01475 12.5629 9.15075 12.6165 9.29733 12.6409C9.44391 12.6653 9.59606 12.6596 9.73896 12.6243L12.6421 11.9094C12.9719 11.8283 13.3252 11.8261 13.6566 11.9031C13.9881 11.9802 14.2825 12.133 14.5022 12.3419L15.8757 13.6467C16.4483 14.1899 16.3807 14.9883 15.7221 15.4683C13.9227 16.7806 11.4482 17.0502 9.72681 15.9666C7.61736 14.6346 5.83869 13.0106 4.47939 11.1755C3.11011 9.34104 2.19498 7.32175 1.78193 5.22206ZM7.06232 7.61728L8.92426 6.28117C9.4338 5.91539 9.79208 5.43884 9.95316 4.91265C10.1142 4.38646 10.0708 3.83461 9.82833 3.32788L9.07349 1.75279C8.76554 1.10926 8.15555 0.581856 7.36785 0.278085C6.58015 -0.0256858 5.67404 -0.0829541 4.83425 0.117955C1.91468 0.817918 -0.42966 2.86621 0.0666243 5.42505C0.512121 7.69393 1.50025 9.87675 2.97926 11.8592C4.44537 13.8381 6.36375 15.5894 8.63881 17.0257C11.22 18.6483 14.668 18.095 16.9056 16.4622C17.5462 15.9954 17.935 15.3549 17.9926 14.6714C18.0501 13.988 17.7721 13.3131 17.2153 12.7845L15.8419 11.4796C15.4024 11.0617 14.8133 10.7561 14.1502 10.602C13.4872 10.4478 12.7804 10.4523 12.1206 10.6147L9.7112 11.2081C9.60332 11.1213 9.49774 11.0328 9.39451 10.9426C8.89917 10.5141 8.46105 10.047 8.08699 9.5488C7.72243 9.04613 7.42444 8.51563 7.19767 7.96556C7.14951 7.85043 7.10439 7.73454 7.06232 7.61796" fill="#EF980C"/>
</svg>
