<svg width="1901" height="549" viewBox="0 0 1901 549" fill="none" xmlns="http://www.w3.org/2000/svg">
<path fill-rule="evenodd" clip-rule="evenodd" d="M1870 36.2154C1878.7 9.19937 1876.26 13 1876.26 13L1870 36.2154Z" fill="#EF980C"/>
<path d="M52.5417 144.088L0 89.468V548.275H52.5417H315.25H630.5H945.75H1208.46H1900.5V89.468L1892 52.2314L1876.26 13C1876.26 13 1882.33 64.1102 1876.26 58.8473C1878.87 44.7756 1876.26 67.62 1870 36.2154L1876.26 13C1876.26 13 1809.1 -15.7655 1806.5 13C1763 493.656 1208.46 67.62 1208.46 67.62C1208.46 67.62 1050.83 2.07601 945.75 13C840.667 23.924 735.583 89.4681 630.5 165.936C525.417 242.404 420.333 291.7 315.25 280.776C210.167 269.852 105.083 198.708 52.5417 144.088Z" fill="#EF980C"/>
</svg>
