<svg width="26" height="26" viewBox="0 0 26 26" fill="none" xmlns="http://www.w3.org/2000/svg">
<path d="M2.5739 7.54297C2.09641 5.07759 4.31966 2.85934 7.71595 2.0454C8.31898 1.90097 8.9697 1.94202 9.53538 2.16015C10.1011 2.37828 10.5391 2.75707 10.7601 3.21925L11.8491 5.49437C12.0242 5.86035 12.0556 6.2589 11.9393 6.63893C11.823 7.01896 11.5642 7.36313 11.1962 7.62731L7.95658 9.95245C7.7965 10.0671 7.67723 10.2124 7.61045 10.374C7.54366 10.5356 7.53165 10.708 7.57559 10.8743L7.60441 10.9763L7.68462 11.2322C7.75606 11.448 7.86384 11.752 8.01548 12.1148C8.31626 12.8356 8.79625 13.8045 9.5106 14.7724C10.2249 15.7403 11.0571 16.5503 11.7038 17.1142C12.0409 17.4076 12.3929 17.6902 12.759 17.9615L12.8593 18.0341C13.0213 18.1464 13.2178 18.2239 13.4295 18.2591C13.6412 18.2944 13.861 18.2861 14.0674 18.2351L18.2607 17.2025C18.7372 17.0853 19.2475 17.0821 19.7262 17.1934C20.205 17.3047 20.6303 17.5254 20.9477 17.8271L22.9316 19.712C23.7587 20.4965 23.661 21.6497 22.7098 22.3431C20.1105 24.2387 16.5363 24.628 14.0498 23.0629C11.0029 21.1388 8.43366 18.793 6.47023 16.1424C4.49238 13.4926 3.17053 10.5759 2.5739 7.54297ZM10.2011 11.0027L12.8906 9.0728C13.6266 8.54445 14.1441 7.85611 14.3768 7.09605C14.6095 6.33599 14.5467 5.53888 14.1965 4.80693L13.1062 2.53181C12.6613 1.60227 11.7802 0.840459 10.6424 0.401679C9.50465 -0.0371017 8.19584 -0.119823 6.98281 0.170379C2.76564 1.18144 -0.62062 4.14008 0.0962351 7.83619C0.73973 11.1135 2.16703 14.2664 4.30337 17.1299C6.4211 19.9884 9.19208 22.518 12.4783 24.5927C16.2067 26.9365 21.1871 26.1372 24.4192 23.7788C25.3445 23.1045 25.9061 22.1793 25.9893 21.1921C26.0724 20.2048 25.6708 19.23 24.8666 18.4665L22.8827 16.5817C22.2479 15.978 21.397 15.5366 20.4392 15.3139C19.4815 15.0913 18.4606 15.0977 17.5075 15.3323L14.0273 16.1894C13.8715 16.0641 13.719 15.9363 13.5699 15.806C12.8544 15.187 12.2215 14.5124 11.6812 13.7927C11.1546 13.0666 10.7242 12.3004 10.3966 11.5058C10.3271 11.3395 10.2619 11.1721 10.2011 11.0037" fill="white"/>
</svg>
